<?xml version="1.0" encoding="utf-8"?>
<!-- Generator: Adobe Illustrator 21.0.0, SVG Export Plug-In . SVG Version: 6.00 Build 0)  -->
<!DOCTYPE svg PUBLIC "-//W3C//DTD SVG 1.1//EN" "http://www.w3.org/Graphics/SVG/1.1/DTD/svg11.dtd">
<svg version="1.1" id="Layer_1" xmlns="http://www.w3.org/2000/svg" xmlns:xlink="http://www.w3.org/1999/xlink" x="0px" y="0px"
	 viewBox="0 0 1685.4 608.9" style="enable-background:new 0 0 1685.4 608.9;" xml:space="preserve">
<style type="text/css">
	.st0{fill:#374050;}
</style>
<g>
	<path class="st0" d="M456.4,388.1c2.5-2.1,5-4.2,7.4-6.4h-8.2c-0.1,2.1-0.1,4.2-0.2,6.4H456.4z"/>
	<g>
		<path class="st0" d="M27.3,422.3h10.6c-4.3-2.3-8.4-4.7-12.6-7.2v6.1C26,421.5,26.6,421.9,27.3,422.3z"/>
		<path class="st0" d="M404.5,371.1h51c0-1.3-0.1-2.5-0.1-3.8h-20.1v-10.7H446v-8.2H327.3v-5.3H446v-3.5h-28v-3h28v-11.3h-63.9
			v-11.8h65.1c-0.5-1.8-1-3.6-1.6-5.4h-45.3v-6h43.4c-0.6-1.9-1.3-3.7-1.9-5.6h-84.4V289H331v-5.5h-73.5v-11.8H331v-5.4h-96.6v-6
			H331v-9.4h37.3v-16.3H265.1v-7.4h23.2V211h-23.2v-3.8h-15.5v-3h15.5V200h-54.6v-3h39.1v0.1h23.2v-11.8h-7.7v-3.1h-50.3v-6h50.3
			v-5.8h23.2v-2.8h-23.2v-2.3H299v-10.1c-24.1-8.4-50.1-13-77.1-13c-99.8,0-184.9,62.5-218.4,150.5h14.8v16.8H32v5.6H0v16.4h8.6
			h72.1v8.7H25.3v11.3H8.6v9.3h49.9v13h30.7v5.5h61.2v5.5H45.3v5.2h-23v6.4H72v3.2h48.7v5.3H45.3v5.3h-20v4.8
			c4.1,2.5,8.3,4.9,12.6,7.2H106v6.7H50.8c50.9,25.1,109.9,38.4,171.2,38.4c66.5,0,130.4-15.1,184.2-45h-24.6v-4.9H374v-8.7h7.6
			v-7.2h-32.7v-4.3H374v-2.2h7.6H408v-7h47.3c0.1-2.1,0.2-4.2,0.2-6.4h-51V371.1z M158.8,246.8c-2,14.5-9.2,29.8-20.3,43.3
			c-15.8,19.3-36.9,31.3-54.9,31.3c-7.8,0-14.7-2.3-20-6.7c-18-14.8-13.7-49.9,9.6-78.2c15.8-19.3,36.9-31.3,54.9-31.3
			c7.8,0,14.7,2.3,20,6.7C157.1,219.3,160.9,231.7,158.8,246.8z"/>
		<path class="st0" d="M18.9,438.3h26.4v4.7h13.1v6.7H72v7.3H58.5H45.3v16h75.3v7.3h12.9v7.3H18.2c1.5,2.7,3.1,5.4,4.7,8h35.6v4.3
			h22.2v4.4H28.5c0.6,0.9,1.2,1.8,1.8,2.7H92h20.6v16h37.8v7.3H88.5v19.3h27.2v10.7H82c1.5,1.1,3,2.2,4.6,3.3h60.8v8.7h14v10h-43.7
			c13.2,6.6,27.1,12,41.6,16h21.9v-0.2h66.9v-2.9h46.6c7.9-2.6,15.5-5.5,23-8.9h-29.4H223v-3.6h65.3v-6h-93.6v-10.1h93.6v-11.1h36.8
			v-2.1h45.5c1.9-1.6,3.8-3.2,5.6-4.8h-37.3v-8.7h25.9v-7.2h-51.1v-4.3h25.1v-2.2h32.6v-5.4H403c2.7-3.3,5.3-6.7,7.9-10.2h-16.7
			v-4.3h4.7v-13.8H327V486h91v-3.3h-59v-6.4h59v-6.7h-35v-10.7h35v-7.2h-13.5v-5.3h26.4v-19.2h18.4c0.3-1.3,0.6-2.5,0.9-3.8h-35.5
			c-56,32.3-123,50-192.7,50c-65.7,0-128.9-15.8-182.7-44.5H18.9V438.3z"/>
		<path class="st0" d="M25.3,422.3h2c-0.7-0.4-1.3-0.8-2-1.2V422.3z"/>
		<path class="st0" d="M102.5,285.3c-0.4-1.2-0.6-2.5-0.6-3.9l0-1.3H59l-0.1,1.1c-1,7.8-0.2,14.8,2.3,20.3l0.5,1.1l41.1-16.3
			L102.5,285.3z"/>
		<path class="st0" d="M132.6,270.7c-0.3,2.1-1,4.3-2.1,6.6l-0.5,1.1l6.6,4.1l0.7-1c4.9-6.7,8.7-13.7,11.4-20.8l1.6-4.3l-17.7,13.4
			L132.6,270.7z"/>
		<path class="st0" d="M94.6,224.6c-6.1,4.5-11.7,9.9-16.6,15.9c-0.3,0.4-0.6,0.8-1,1.2l-1.2,1.5l33.3,22l0.8-0.7
			c1.2-1.2,2.5-2.2,3.8-3.1l1-0.6l-18.8-37.1L94.6,224.6z"/>
		<path class="st0" d="M144.1,216.7c-2.8-2.3-6.1-3.9-10-4.7l-1.5-0.3l-2.4,49.4l0.3,0.4c0.3,0.4,0.6,0.8,0.8,1.2l0.7,1.3l20-15.2
			l0.1-0.5c0.1-0.8,0.3-1.6,0.4-2.4C154.4,233.1,151.4,222.7,144.1,216.7z"/>
		<path class="st0" d="M107.1,290.5l-0.5-0.2l-42.1,16.6l1.4,1.4c0.6,0.6,1.2,1.1,1.7,1.6c4.3,3.5,9.7,5.3,16.1,5.3
			c8,0,17-2.8,26.1-8.2l0.5-0.3l2.4-15.2l-1.5,0C109.7,291.4,108.3,291.1,107.1,290.5z"/>
		<path class="st0" d="M126.6,283.3c-2.4,2.8-5.2,5-8.1,6.4l-0.6,0.3l-2.1,13.1l2.6-2c5.1-3.9,9.9-8.5,14.2-13.6l1-1.2l-6.3-3.9
			L126.6,283.3z"/>
		<path class="st0" d="M120.1,258.5c1.4-0.3,2.8-0.4,4-0.3l1.4,0.1l2.3-46.8l-1.4,0.1c-7.9,0.4-16.6,3.4-25.3,8.7l-1,0.6l19.1,37.8
			L120.1,258.5z"/>
		<path class="st0" d="M103.2,274.3c0.6-1.5,1.3-2.9,2.1-4.2l0.7-1.1l-33.1-21.8l-0.7,1.1c-5.5,8.1-9.5,16.9-11.8,25.3l-0.4,1.6
			h42.9L103.2,274.3z"/>
	</g>
</g>
<g>
	<path class="st0" d="M1025.8,422.4h-24.6v-4.9h-7.6v-8.7h7.6v-7.2h-32.7v-4.3h25.1v-2.2h7.6h26.4v-7h47.3c0.1-2.1,0.2-4.2,0.2-6.4
		h-51v-10.7h51c0-1.3-0.1-2.5-0.1-3.8H1055v-10.7h10.7v-8.2H946.9v-5.3h118.7v-3.5h-28v-3h28v-11.3h-63.9v-11.8h65.1
		c-0.5-1.8-1-3.6-1.6-5.4H1020v-6h43.4c-0.6-1.9-1.3-3.7-1.9-5.6h-84.4V289h-26.4v-5.5h-73.5v-11.8h73.5v-5.4h-96.6v-6h96.6v-9.4
		H988v-16.3H884.8v-7.4H908V211h-23.2v-3.8h-15.5v-3h15.5V200h-54.6v-3h39.1v0.1h23.2v-11.8h-7.7v-3.1h-50.3v-6h50.3v-5.8H908v-2.8
		h-23.2v-2.3h33.9v-10.1c-24.1-8.4-50.1-13-77.1-13c-129.1,0-233.7,104.6-233.7,233.7c0,4.4,0.1,8.8,0.4,13.2
		c61.4,50.5,145,78.3,233.3,78.3C908.1,467.4,971.9,452.3,1025.8,422.4z M778.4,246.8c-2,14.5-9.2,29.8-20.3,43.3
		c-15.8,19.3-36.9,31.3-54.9,31.3c-7.8,0-14.7-2.3-20-6.7c-18-14.8-13.7-49.9,9.6-78.2c15.8-19.3,36.9-31.3,54.9-31.3
		c7.8,0,14.7,2.3,20,6.7C776.7,219.3,780.5,231.7,778.4,246.8z"/>
	<path class="st0" d="M841.6,473.4c-87.4,0-170.3-28-232.5-76.8c10.4,104.5,89.7,188.8,191.8,206.7v-5.1h66.9v-2.9h46.6
		c7.9-2.6,15.5-5.5,23-8.9H908h-65.3v-3.7H908v-6h-93.6v-10.1H908v-11.1h36.8v-2.1h45.5c1.9-1.6,3.8-3.2,5.6-4.8h-37.3v-8.7h25.9
		v-7.2h-51.1v-4.3h25.1v-2.2h32.6v-5.4h31.5c2.7-3.3,5.3-6.7,7.9-10.2h-16.7v-4.3h4.7v-13.8h-71.9V486h91v-3.3h-59v-6.4h59v-6.7h-35
		v-10.7h35v-7.2h-13.5v-5.3h26.4v-19.2h18.4c0.3-1.3,0.6-2.5,0.9-3.8h-35.5C978.3,455.7,911.3,473.4,841.6,473.4z"/>
	<g>
		<path class="st0" d="M722.1,285.3c-0.4-1.2-0.6-2.5-0.6-3.9l0-1.3h-42.8l-0.1,1.1c-1,7.8-0.2,14.8,2.3,20.3l0.5,1.1l41.1-16.3
			L722.1,285.3z"/>
		<path class="st0" d="M752.3,270.7c-0.3,2.1-1,4.3-2.1,6.6l-0.5,1.1l6.6,4.1l0.7-1c4.9-6.7,8.7-13.7,11.4-20.8l1.6-4.3l-17.7,13.4
			L752.3,270.7z"/>
		<path class="st0" d="M714.3,224.6c-6.1,4.5-11.7,9.9-16.6,15.9c-0.3,0.4-0.6,0.8-1,1.2l-1.2,1.5l33.3,22l0.8-0.7
			c1.2-1.2,2.5-2.2,3.8-3.1l1-0.6l-18.8-37.1L714.3,224.6z"/>
		<path class="st0" d="M763.8,216.7c-2.8-2.3-6.1-3.9-10-4.7l-1.5-0.3l-2.4,49.4l0.3,0.4c0.3,0.4,0.6,0.8,0.8,1.2l0.7,1.3l20-15.2
			l0.1-0.5c0.1-0.8,0.3-1.6,0.4-2.4C774.1,233.1,771.1,222.7,763.8,216.7z"/>
		<path class="st0" d="M726.7,290.5l-0.5-0.2l-42.1,16.6l1.4,1.4c0.6,0.6,1.2,1.1,1.7,1.6c4.3,3.5,9.7,5.3,16.1,5.3
			c8,0,17-2.8,26.1-8.2l0.5-0.3l2.4-15.2l-1.5,0C729.3,291.4,728,291.1,726.7,290.5z"/>
		<path class="st0" d="M746.2,283.3c-2.4,2.8-5.2,5-8.1,6.4l-0.6,0.3l-2.1,13.1l2.6-2c5.1-3.9,9.9-8.5,14.2-13.6l1-1.2l-6.3-3.9
			L746.2,283.3z"/>
		<path class="st0" d="M739.8,258.5c1.4-0.3,2.8-0.4,4-0.3l1.4,0.1l2.3-46.8l-1.4,0.1c-7.9,0.4-16.6,3.4-25.3,8.7l-1,0.6l19.1,37.8
			L739.8,258.5z"/>
		<path class="st0" d="M722.9,274.3c0.6-1.5,1.3-2.9,2.1-4.2l0.7-1.1l-33-21.8l-0.7,1.1c-5.5,8.1-9.5,16.9-11.8,25.3l-0.4,1.6h42.9
			L722.9,274.3z"/>
	</g>
</g>
<g>
	<g>
		<path class="st0" d="M1371.6,258.5c1.4-0.3,2.8-0.4,4-0.3l1.4,0.1l2.3-46.8l-1.4,0.1c-7.9,0.4-16.6,3.4-25.3,8.7l-1,0.6l19.1,37.8
			L1371.6,258.5z"/>
		<path class="st0" d="M1354,285.3c-0.4-1.2-0.6-2.5-0.6-3.9l0-1.3h-42.8l-0.1,1.1c-1,7.8-0.2,14.8,2.3,20.3l0.5,1.1l41.1-16.3
			L1354,285.3z"/>
		<path class="st0" d="M1451.2,140.6c-129.3,0-234.2,104.8-234.2,234.2c0,5,0.2,9.9,0.5,14.7c58.9,47,141.8,76.2,233.7,76.2
			c91.9,0,174.8-29.3,233.7-76.2c0.3-4.9,0.5-9.8,0.5-14.7C1685.4,245.4,1580.5,140.6,1451.2,140.6z M1408.2,245.2
			c-2,14.5-9.2,29.8-20.3,43.3c-15.8,19.3-36.9,31.3-54.9,31.3c-7.8,0-14.7-2.3-20-6.7c-18-14.8-13.7-49.9,9.6-78.2
			c15.8-19.3,36.9-31.3,54.9-31.3c7.8,0,14.7,2.3,20,6.7C1406.5,217.6,1410.3,230,1408.2,245.2z"/>
		<path class="st0" d="M1358.6,290.5l-0.5-0.2l-42.1,16.6l1.4,1.4c0.6,0.6,1.2,1.1,1.7,1.6c4.3,3.5,9.7,5.3,16.1,5.3
			c8,0,17-2.8,26.1-8.2l0.5-0.3l2.4-15.2l-1.5,0C1361.2,291.4,1359.8,291.1,1358.6,290.5z"/>
		<path class="st0" d="M1218.2,397.7c11.5,118.6,111.5,211.2,233.1,211.2c121.6,0,221.5-92.7,233.1-211.2
			c-58.9,46.7-141.5,75.7-233.1,75.7C1359.7,473.4,1277,444.3,1218.2,397.7z"/>
		<path class="st0" d="M1354.7,274.3c0.6-1.5,1.3-2.9,2.1-4.2l0.7-1.1l-33-21.8l-0.7,1.1c-5.5,8.1-9.5,16.9-11.8,25.3l-0.4,1.6h42.9
			L1354.7,274.3z"/>
		<path class="st0" d="M1378.1,283.3c-2.4,2.8-5.2,5-8.1,6.4l-0.6,0.3l-2.1,13.1l2.6-2c5.1-3.9,9.9-8.5,14.2-13.6l1-1.2l-6.3-3.9
			L1378.1,283.3z"/>
		<path class="st0" d="M1384.2,270.7c-0.3,2.1-1,4.3-2.1,6.6l-0.5,1.1l6.6,4.1l0.7-1c4.9-6.7,8.7-13.7,11.4-20.8l1.6-4.3l-17.7,13.4
			L1384.2,270.7z"/>
		<path class="st0" d="M1346.1,224.6c-6.1,4.5-11.7,9.9-16.6,15.9c-0.3,0.4-0.6,0.8-1,1.2l-1.2,1.5l33.3,22l0.8-0.7
			c1.2-1.2,2.5-2.2,3.8-3.1l1-0.6l-18.8-37.1L1346.1,224.6z"/>
		<path class="st0" d="M1395.7,216.7c-2.8-2.3-6.1-3.9-10-4.7l-1.5-0.3l-2.4,49.4l0.3,0.4c0.3,0.4,0.6,0.8,0.8,1.2l0.7,1.3l20-15.2
			l0.1-0.5c0.1-0.8,0.3-1.6,0.4-2.4C1405.9,233.1,1402.9,222.7,1395.7,216.7z"/>
	</g>
	<g>
		<path class="st0" d="M168.1,46.5v-0.3c4.7-1.1,8.3-3.2,10.9-6.2s3.9-6.6,3.9-10.9c0-5.1-2.1-9.1-6.2-12s-9.7-4.3-16.8-4.3
			c-8.7,0-16.1,2.2-22.4,6.8l6.7,10c2.8-1.8,5.4-3.1,7.8-3.9s4.6-1.1,6.9-1.1c6.5,0,9.8,2.6,9.8,7.8c0,3.4-1.2,5.8-3.7,7.1
			s-6.3,2.1-11.6,2.1H148v11.1h5.2c5.8,0,9.9,0.7,12.6,2s3.9,3.6,3.9,6.8c0,3.6-1.1,6.2-3.4,7.8s-5.8,2.4-10.6,2.4
			c-3.1,0-6.3-0.4-9.5-1.3s-6.1-1.9-8.8-3.3v12.3c5.8,2.5,12.3,3.7,19.8,3.7c8.9,0,15.7-1.8,20.5-5.5s7.2-8.8,7.2-15.4
			c0-4.5-1.4-8.1-4.3-10.8S173.6,47.1,168.1,46.5z"/>
		<path class="st0" d="M222.9,46.5v-0.3c4.7-1.1,8.3-3.2,10.9-6.2s3.9-6.6,3.9-10.9c0-5.1-2.1-9.1-6.2-12s-9.7-4.3-16.8-4.3
			c-8.7,0-16.1,2.2-22.4,6.8l6.7,10c2.8-1.8,5.4-3.1,7.8-3.9s4.6-1.1,6.9-1.1c6.5,0,9.8,2.6,9.8,7.8c0,3.4-1.2,5.8-3.7,7.1
			s-6.3,2.1-11.6,2.1h-5.3v11.1h5.2c5.8,0,9.9,0.7,12.6,2s3.9,3.6,3.9,6.8c0,3.6-1.1,6.2-3.4,7.8s-5.8,2.4-10.6,2.4
			c-3.1,0-6.3-0.4-9.5-1.3s-6.1-1.9-8.8-3.3v12.3c5.8,2.5,12.3,3.7,19.8,3.7c8.9,0,15.7-1.8,20.5-5.5s7.2-8.8,7.2-15.4
			c0-4.5-1.4-8.1-4.3-10.8S228.4,47.1,222.9,46.5z"/>
		<polygon class="st0" points="300,13.7 262,82.3 273.2,82.3 311.2,13.7 		"/>
		<path class="st0" d="M274.8,50.4c2.8-3.6,4.2-9,4.2-16.2c0-6.9-1.4-12.2-4.2-15.9s-6.9-5.6-12.2-5.6c-10.8,0-16.2,7.1-16.2,21.4
			c0,7,1.4,12.4,4.2,16.1s6.8,5.6,12,5.6C267.9,55.8,272,54,274.8,50.4z M259.3,43.1c-0.7-2-1.1-4.9-1.1-8.9s0.4-6.9,1.1-8.8
			s1.8-2.9,3.4-2.9c3,0,4.5,3.9,4.5,11.7c0,7.9-1.5,11.8-4.5,11.8C261.1,46.1,260,45.1,259.3,43.1z"/>
		<path class="st0" d="M310.6,40.1c-10.8,0-16.2,7.1-16.2,21.4c0,7,1.4,12.3,4.2,16s6.8,5.6,12,5.6c5.4,0,9.5-1.8,12.2-5.4
			s4.2-9,4.2-16.1c0-6.9-1.4-12.2-4.2-15.9S315.8,40.1,310.6,40.1z M310.7,73.5c-1.6,0-2.7-1-3.4-2.9s-1.1-4.9-1.1-8.9
			s0.4-6.9,1.1-8.8s1.8-2.9,3.4-2.9c3,0,4.5,3.9,4.5,11.7C315.2,69.5,313.7,73.5,310.7,73.5z"/>
		<path class="st0" d="M775.7,37.7c-6.8,0-11.8,2.7-14.9,8h-0.6c0.3-5.4,1.2-9.6,2.8-12.5s3.9-5.2,7.1-6.7s7.2-2.2,12.2-2.2
			c2.7,0,5.5,0.3,8.2,0.9V13.6c-2.2-0.5-5.3-0.7-9.2-0.7c-11.4,0-20,3.3-25.8,9.9s-8.6,16.7-8.6,30.3c0,6.3,1,11.8,3.1,16.3
			s5,7.9,8.7,10.3s8.2,3.5,13.2,3.5c7.3,0,13-2.1,17.2-6.4s6.2-10.1,6.2-17.4c0-6.8-1.7-12.1-5.2-15.9S781.8,37.7,775.7,37.7z
			 M778.8,68.5c-1.7,2.1-4,3.1-7.1,3.1c-3,0-5.5-1.3-7.4-3.8s-2.9-5.7-2.9-9.4c0-2.5,1-4.8,3.1-6.7s4.6-2.9,7.5-2.9
			c3.1,0,5.5,1,7,2.9s2.3,4.6,2.3,7.9C781.2,63.5,780.4,66.4,778.8,68.5z"/>
		<path class="st0" d="M820.2,69.4l8.8-8.3c5.9-5.4,10-9.5,12.3-12.4s4-5.7,5.2-8.5s1.7-5.7,1.7-8.9c0-3.6-0.9-6.8-2.7-9.7
			s-4.4-5-7.6-6.6s-7.1-2.3-11.3-2.3c-3.2,0-6.2,0.3-8.8,1s-5,1.6-7.3,2.7s-5,3.2-8.4,6.1l7.9,9.3c2.7-2.2,5.3-4,7.8-5.2
			s5.1-1.8,7.7-1.8c2.5,0,4.6,0.7,6.1,2s2.3,3.4,2.3,6.1c0,1.8-0.3,3.6-1,5.3s-1.8,3.6-3.4,5.6s-4.9,5.6-10,10.9l-17.2,17.4v10.1
			h47.9V70.1h-29.9V69.4z"/>
		<path class="st0" d="M884.5,50.4c2.8-3.6,4.2-9,4.2-16.2c0-6.9-1.4-12.2-4.2-15.9s-6.9-5.6-12.2-5.6c-10.8,0-16.2,7.1-16.2,21.4
			c0,7,1.4,12.4,4.2,16.1s6.8,5.6,12,5.6C877.6,55.8,881.7,54,884.5,50.4z M868.9,43.1c-0.7-2-1.1-4.9-1.1-8.9s0.4-6.9,1.1-8.8
			s1.8-2.9,3.4-2.9c3,0,4.5,3.9,4.5,11.7c0,7.9-1.5,11.8-4.5,11.8C870.8,46.1,869.6,45.1,868.9,43.1z"/>
		<polygon class="st0" points="909.6,13.7 871.6,82.3 882.9,82.3 920.9,13.7 		"/>
		<path class="st0" d="M920.2,40.1c-10.8,0-16.2,7.1-16.2,21.4c0,7,1.4,12.3,4.2,16s6.8,5.6,12,5.6c5.4,0,9.5-1.8,12.2-5.4
			s4.2-9,4.2-16.1c0-6.9-1.4-12.2-4.2-15.9S925.5,40.1,920.2,40.1z M920.3,73.5c-1.6,0-2.7-1-3.4-2.9s-1.1-4.9-1.1-8.9
			s0.4-6.9,1.1-8.8s1.8-2.9,3.4-2.9c3,0,4.5,3.9,4.5,11.7C924.8,69.5,923.3,73.5,920.3,73.5z"/>
		<path class="st0" d="M1331.4,31.3l7,8.7l7.9-6.3c0.9-0.8,2.6-2.3,5-4.7l-0.2,7.1l-0.1,6.5v39.7h14.5V13.7h-11.9L1331.4,31.3z"/>
		<path class="st0" d="M1407.9,12.7c-8.1,0-14.1,2.9-18,8.6S1384,35.9,1384,48c0,11.6,2,20.4,6,26.3s10,8.9,17.9,8.9
			c8.2,0,14.2-2.9,18.1-8.6s5.9-14.6,5.9-26.6c0-11.6-2-20.3-6.1-26.3S1415.8,12.7,1407.9,12.7z M1415.3,66
			c-1.5,3.7-3.9,5.5-7.3,5.5c-3.4,0-5.9-1.8-7.3-5.5s-2.2-9.7-2.2-18.1s0.7-14.4,2.2-18.1s3.9-5.5,7.3-5.5c3.3,0,5.8,1.8,7.3,5.5
			s2.3,9.7,2.3,18.1C1417.5,56.3,1416.8,62.3,1415.3,66z"/>
		<path class="st0" d="M1462.7,12.7c-8.1,0-14.1,2.9-18,8.6s-5.9,14.6-5.9,26.7c0,11.6,2,20.4,6,26.3s10,8.9,17.9,8.9
			c8.2,0,14.2-2.9,18.1-8.6s5.9-14.6,5.9-26.6c0-11.6-2-20.3-6.1-26.3S1470.6,12.7,1462.7,12.7z M1470.1,66
			c-1.5,3.7-3.9,5.5-7.3,5.5c-3.4,0-5.9-1.8-7.3-5.5s-2.2-9.7-2.2-18.1s0.7-14.4,2.2-18.1s3.9-5.5,7.3-5.5c3.3,0,5.8,1.8,7.3,5.5
			s2.3,9.7,2.3,18.1C1472.3,56.3,1471.6,62.3,1470.1,66z"/>
		<path class="st0" d="M1569.4,45.7c-2.8-3.7-6.9-5.6-12.2-5.6c-10.8,0-16.2,7.1-16.2,21.4c0,7,1.4,12.3,4.2,16s6.8,5.6,12,5.6
			c5.4,0,9.5-1.8,12.2-5.4s4.2-9,4.2-16.1C1573.7,54.7,1572.3,49.4,1569.4,45.7z M1557.4,73.5c-1.6,0-2.7-1-3.4-2.9
			s-1.1-4.9-1.1-8.9s0.4-6.9,1.1-8.8s1.8-2.9,3.4-2.9c3,0,4.5,3.9,4.5,11.7C1561.9,69.5,1560.4,73.5,1557.4,73.5z"/>
		<path class="st0" d="M1521.5,50.4c2.8-3.6,4.2-9,4.2-16.2c0-6.9-1.4-12.2-4.2-15.9s-6.9-5.6-12.2-5.6c-10.8,0-16.2,7.1-16.2,21.4
			c0,7,1.4,12.4,4.2,16.1s6.8,5.6,12,5.6C1514.7,55.8,1518.7,54,1521.5,50.4z M1506,43.1c-0.7-2-1.1-4.9-1.1-8.9s0.4-6.9,1.1-8.8
			s1.8-2.9,3.4-2.9c3,0,4.5,3.9,4.5,11.7c0,7.9-1.5,11.8-4.5,11.8C1507.8,46.1,1506.7,45.1,1506,43.1z"/>
		<polygon class="st0" points="1546.7,13.7 1508.7,82.3 1519.9,82.3 1557.9,13.7 		"/>
	</g>
</g>
</svg>
