<?xml version="1.0" encoding="utf-8"?>
<!-- Generator: Adobe Illustrator 21.0.0, SVG Export Plug-In . SVG Version: 6.00 Build 0)  -->
<!DOCTYPE svg PUBLIC "-//W3C//DTD SVG 1.1//EN" "http://www.w3.org/Graphics/SVG/1.1/DTD/svg11.dtd">
<svg version="1.1" id="Layer_1" xmlns="http://www.w3.org/2000/svg" xmlns:xlink="http://www.w3.org/1999/xlink" x="0px" y="0px"
	 viewBox="0 0 1685.4 608.9" style="enable-background:new 0 0 1685.4 608.9;" xml:space="preserve">
<style type="text/css">
	.st0{fill:none;}
	.st1{font-family:'OpenSans-Bold';}
	.st2{font-size:96px;}
</style>
<g>
	<g>
		<path class="st0" d="M456.4,388.1c2.5-2.1,5-4.2,7.4-6.4h-8.2c-0.1,2.1-0.1,4.2-0.2,6.4H456.4z"/>
		<g>
			<path class="st0" d="M27.3,422.3h10.6c-4.3-2.3-8.4-4.7-12.6-7.2v6.1C26,421.5,26.6,421.9,27.3,422.3z"/>
			<path class="st0" d="M148.1,211.9c-5.3-4.4-12.2-6.7-20-6.7c-18,0-39.1,12-54.9,31.3c-23.3,28.3-27.6,63.5-9.6,78.2
				c5.3,4.4,12.2,6.7,20,6.7c18,0,39.1-12,54.9-31.3c11.1-13.5,18.3-28.9,20.3-43.3C160.9,231.7,157.1,219.3,148.1,211.9z
				 M101,220.2c8.7-5.3,17.4-8.3,25.3-8.7l1.4-0.1l-2.3,46.8l-1.4-0.1c-1.2-0.1-2.6,0-4,0.3l-1,0.2L100,220.9L101,220.2z
				 M60.4,273.5c2.2-8.4,6.3-17.1,11.8-25.3l0.7-1.1L106,269l-0.7,1.1c-0.8,1.3-1.5,2.8-2.1,4.2l-0.3,0.8H60L60.4,273.5z
				 M61.7,302.7l-0.5-1.1c-2.5-5.6-3.3-12.6-2.3-20.3l0.1-1.1h42.8l0,1.3c0,1.4,0.2,2.7,0.6,3.9l0.4,1.2L61.7,302.7z M110.2,306.7
				l-0.5,0.3c-9.1,5.4-18.1,8.2-26.1,8.2c-6.4,0-11.8-1.8-16.1-5.3c-0.6-0.5-1.1-1-1.7-1.6l-1.4-1.4l42.1-16.6l0.5,0.2
				c1.2,0.6,2.6,0.9,4.1,1l1.5,0L110.2,306.7z M113.7,261.4c-1.3,0.9-2.6,1.9-3.8,3.1l-0.8,0.7l-33.3-22l1.2-1.5
				c0.3-0.4,0.6-0.8,1-1.2c4.9-6,10.5-11.4,16.6-15.9l1.2-0.9l18.8,37.1L113.7,261.4z M132.6,287.5c-4.3,5.1-9.1,9.7-14.2,13.6
				l-2.6,2l2.1-13.1l0.6-0.3c2.9-1.4,5.7-3.7,8.1-6.4l0.7-0.9l6.3,3.9L132.6,287.5z M148.8,260.6c-2.7,7.1-6.6,14.2-11.4,20.8
				l-0.7,1l-6.6-4.1l0.5-1.1c1.1-2.2,1.8-4.4,2.1-6.6l0.1-1l17.7-13.4L148.8,260.6z M152.6,246c-0.1,0.8-0.2,1.6-0.4,2.4l-0.1,0.5
				l-20,15.2l-0.7-1.3c-0.2-0.4-0.5-0.8-0.8-1.2l-0.3-0.4l2.4-49.4l1.5,0.3c3.8,0.8,7.2,2.4,10,4.7
				C151.4,222.7,154.4,233.1,152.6,246z"/>
			<path d="M404.5,371.1h51c0-1.3-0.1-2.5-0.1-3.8h-20.1v-10.7H446v-8.2H327.3v-5.3H446v-3.5h-28v-3h28v-11.3h-63.9v-11.8h65.1
				c-0.5-1.8-1-3.6-1.6-5.4h-45.3v-6h43.4c-0.6-1.9-1.3-3.7-1.9-5.6h-84.4V289H331v-5.5h-73.5v-11.8H331v-5.4h-96.6v-6H331v-9.4
				h37.3v-16.3H265.1v-7.4h23.2V211h-23.2v-3.8h-15.5v-3h15.5V200h-54.6v-3h39.1v0.1h23.2v-11.8h-7.7v-3.1h-50.3v-6h50.3v-5.8h23.2
				v-2.8h-23.2v-2.3H299v-10.1c-24.1-8.4-50.1-13-77.1-13c-99.8,0-184.9,62.5-218.4,150.5h14.8v16.8H32v5.6H0v16.4h8.6h72.1v8.7
				H25.3v11.3H8.6v9.3h49.9v13h30.7v5.5h61.2v5.5H45.3v5.2h-23v6.4H72v3.2h48.7v5.3H45.3v5.3h-20v4.8c4.1,2.5,8.3,4.9,12.6,7.2H106
				v6.7H50.8c50.9,25.1,109.9,38.4,171.2,38.4c66.5,0,130.4-15.1,184.2-45h-24.6v-4.9H374v-8.7h7.6v-7.2h-32.7v-4.3H374v-2.2h7.6
				H408v-7h47.3c0.1-2.1,0.2-4.2,0.2-6.4h-51V371.1z M158.8,246.8c-2,14.5-9.2,29.8-20.3,43.3c-15.8,19.3-36.9,31.3-54.9,31.3
				c-7.8,0-14.7-2.3-20-6.7c-18-14.8-13.7-49.9,9.6-78.2c15.8-19.3,36.9-31.3,54.9-31.3c7.8,0,14.7,2.3,20,6.7
				C157.1,219.3,160.9,231.7,158.8,246.8z"/>
			<path d="M18.9,438.3h26.4v4.7h13.1v6.7H72v7.3H58.5H45.3v16h75.3v7.3h12.9v7.3H18.2c1.5,2.7,3.1,5.4,4.7,8h35.6v4.3h22.2v4.4
				H28.5c0.6,0.9,1.2,1.8,1.8,2.7H92h20.6v16h37.8v7.3H88.5v19.3h27.2v10.7H82c1.5,1.1,3,2.2,4.6,3.3h60.8v8.7h14v10h-43.7
				c13.2,6.6,27.1,12,41.6,16h21.9v-0.2h66.9v-2.9h46.6c7.9-2.6,15.5-5.5,23-8.9h-29.4H223v-3.6h65.3v-6h-93.6v-10.1h93.6v-11.1
				h36.8v-2.1h45.5c1.9-1.6,3.8-3.2,5.6-4.8h-37.3v-8.7h25.9v-7.2h-51.1v-4.3h25.1v-2.2h32.6v-5.4H403c2.7-3.3,5.3-6.7,7.9-10.2
				h-16.7v-4.3h4.7v-13.8H327V486h91v-3.3h-59v-6.4h59v-6.7h-35v-10.7h35v-7.2h-13.5v-5.3h26.4v-19.2h18.4c0.3-1.3,0.6-2.5,0.9-3.8
				h-35.5c-56,32.3-123,50-192.7,50c-65.7,0-128.9-15.8-182.7-44.5H18.9V438.3z"/>
			<path d="M25.3,422.3h2c-0.7-0.4-1.3-0.8-2-1.2V422.3z"/>
			<path d="M102.5,285.3c-0.4-1.2-0.6-2.5-0.6-3.9l0-1.3H59l-0.1,1.1c-1,7.8-0.2,14.8,2.3,20.3l0.5,1.1l41.1-16.3L102.5,285.3z"/>
			<path d="M132.6,270.7c-0.3,2.1-1,4.3-2.1,6.6l-0.5,1.1l6.6,4.1l0.7-1c4.9-6.7,8.7-13.7,11.4-20.8l1.6-4.3l-17.7,13.4L132.6,270.7
				z"/>
			<path d="M94.6,224.6c-6.1,4.5-11.7,9.9-16.6,15.9c-0.3,0.4-0.6,0.8-1,1.2l-1.2,1.5l33.3,22l0.8-0.7c1.2-1.2,2.5-2.2,3.8-3.1
				l1-0.6l-18.8-37.1L94.6,224.6z"/>
			<path d="M144.1,216.7c-2.8-2.3-6.1-3.9-10-4.7l-1.5-0.3l-2.4,49.4l0.3,0.4c0.3,0.4,0.6,0.8,0.8,1.2l0.7,1.3l20-15.2l0.1-0.5
				c0.1-0.8,0.3-1.6,0.4-2.4C154.4,233.1,151.4,222.7,144.1,216.7z"/>
			<path d="M107.1,290.5l-0.5-0.2l-42.1,16.6l1.4,1.4c0.6,0.6,1.2,1.1,1.7,1.6c4.3,3.5,9.7,5.3,16.1,5.3c8,0,17-2.8,26.1-8.2
				l0.5-0.3l2.4-15.2l-1.5,0C109.7,291.4,108.3,291.1,107.1,290.5z"/>
			<path d="M126.6,283.3c-2.4,2.8-5.2,5-8.1,6.4l-0.6,0.3l-2.1,13.1l2.6-2c5.1-3.9,9.9-8.5,14.2-13.6l1-1.2l-6.3-3.9L126.6,283.3z"
				/>
			<path d="M120.1,258.5c1.4-0.3,2.8-0.4,4-0.3l1.4,0.1l2.3-46.8l-1.4,0.1c-7.9,0.4-16.6,3.4-25.3,8.7l-1,0.6l19.1,37.8L120.1,258.5
				z"/>
			<path d="M103.2,274.3c0.6-1.5,1.3-2.9,2.1-4.2l0.7-1.1l-33.1-21.8l-0.7,1.1c-5.5,8.1-9.5,16.9-11.8,25.3l-0.4,1.6h42.9
				L103.2,274.3z"/>
		</g>
	</g>
	<text transform="matrix(1 0 0 1 133.8456 82.2656)" class="st1 st2">33%</text>
</g>
<g>
	<g>
		<path d="M1025.8,422.4h-24.6v-4.9h-7.6v-8.7h7.6v-7.2h-32.7v-4.3h25.1v-2.2h7.6h26.4v-7h47.3c0.1-2.1,0.2-4.2,0.2-6.4h-51v-10.7
			h51c0-1.3-0.1-2.5-0.1-3.8H1055v-10.7h10.7v-8.2H946.9v-5.3h118.7v-3.5h-28v-3h28v-11.3h-63.9v-11.8h65.1c-0.5-1.8-1-3.6-1.6-5.4
			H1020v-6h43.4c-0.6-1.9-1.3-3.7-1.9-5.6h-84.4V289h-26.4v-5.5h-73.5v-11.8h73.5v-5.4h-96.6v-6h96.6v-9.4H988v-16.3H884.8v-7.4H908
			V211h-23.2v-3.8h-15.5v-3h15.5V200h-54.6v-3h39.1v0.1h23.2v-11.8h-7.7v-3.1h-50.3v-6h50.3v-5.8H908v-2.8h-23.2v-2.3h33.9v-10.1
			c-24.1-8.4-50.1-13-77.1-13c-129.1,0-233.7,104.6-233.7,233.7c0,4.4,0.1,8.8,0.4,13.2c61.4,50.5,145,78.3,233.3,78.3
			C908.1,467.4,971.9,452.3,1025.8,422.4z M778.4,246.8c-2,14.5-9.2,29.8-20.3,43.3c-15.8,19.3-36.9,31.3-54.9,31.3
			c-7.8,0-14.7-2.3-20-6.7c-18-14.8-13.7-49.9,9.6-78.2c15.8-19.3,36.9-31.3,54.9-31.3c7.8,0,14.7,2.3,20,6.7
			C776.7,219.3,780.5,231.7,778.4,246.8z"/>
		<path d="M841.6,473.4c-87.4,0-170.3-28-232.5-76.8c10.4,104.5,89.7,188.8,191.8,206.7v-5.1h66.9v-2.9h46.6
			c7.9-2.6,15.5-5.5,23-8.9H908h-65.3v-3.7H908v-6h-93.6v-10.1H908v-11.1h36.8v-2.1h45.5c1.9-1.6,3.8-3.2,5.6-4.8h-37.3v-8.7h25.9
			v-7.2h-51.1v-4.3h25.1v-2.2h32.6v-5.4h31.5c2.7-3.3,5.3-6.7,7.9-10.2h-16.7v-4.3h4.7v-13.8h-71.9V486h91v-3.3h-59v-6.4h59v-6.7
			h-35v-10.7h35v-7.2h-13.5v-5.3h26.4v-19.2h18.4c0.3-1.3,0.6-2.5,0.9-3.8h-35.5C978.3,455.7,911.3,473.4,841.6,473.4z"/>
		<g>
			<path d="M722.1,285.3c-0.4-1.2-0.6-2.5-0.6-3.9l0-1.3h-42.8l-0.1,1.1c-1,7.8-0.2,14.8,2.3,20.3l0.5,1.1l41.1-16.3L722.1,285.3z"
				/>
			<path d="M752.3,270.7c-0.3,2.1-1,4.3-2.1,6.6l-0.5,1.1l6.6,4.1l0.7-1c4.9-6.7,8.7-13.7,11.4-20.8l1.6-4.3l-17.7,13.4L752.3,270.7
				z"/>
			<path d="M714.3,224.6c-6.1,4.5-11.7,9.9-16.6,15.9c-0.3,0.4-0.6,0.8-1,1.2l-1.2,1.5l33.3,22l0.8-0.7c1.2-1.2,2.5-2.2,3.8-3.1
				l1-0.6l-18.8-37.1L714.3,224.6z"/>
			<path d="M763.8,216.7c-2.8-2.3-6.1-3.9-10-4.7l-1.5-0.3l-2.4,49.4l0.3,0.4c0.3,0.4,0.6,0.8,0.8,1.2l0.7,1.3l20-15.2l0.1-0.5
				c0.1-0.8,0.3-1.6,0.4-2.4C774.1,233.1,771.1,222.7,763.8,216.7z"/>
			<path d="M726.7,290.5l-0.5-0.2l-42.1,16.6l1.4,1.4c0.6,0.6,1.2,1.1,1.7,1.6c4.3,3.5,9.7,5.3,16.1,5.3c8,0,17-2.8,26.1-8.2
				l0.5-0.3l2.4-15.2l-1.5,0C729.3,291.4,728,291.1,726.7,290.5z"/>
			<path d="M746.2,283.3c-2.4,2.8-5.2,5-8.1,6.4l-0.6,0.3l-2.1,13.1l2.6-2c5.1-3.9,9.9-8.5,14.2-13.6l1-1.2l-6.3-3.9L746.2,283.3z"
				/>
			<path d="M739.8,258.5c1.4-0.3,2.8-0.4,4-0.3l1.4,0.1l2.3-46.8l-1.4,0.1c-7.9,0.4-16.6,3.4-25.3,8.7l-1,0.6l19.1,37.8L739.8,258.5
				z"/>
			<path d="M722.9,274.3c0.6-1.5,1.3-2.9,2.1-4.2l0.7-1.1l-33-21.8l-0.7,1.1c-5.5,8.1-9.5,16.9-11.8,25.3l-0.4,1.6h42.9L722.9,274.3
				z"/>
		</g>
	</g>
	<text transform="matrix(1 0 0 1 743.5078 82.2656)" class="st1 st2">62%</text>
</g>
<g>
	<g>
		<path d="M1371.6,258.5c1.4-0.3,2.8-0.4,4-0.3l1.4,0.1l2.3-46.8l-1.4,0.1c-7.9,0.4-16.6,3.4-25.3,8.7l-1,0.6l19.1,37.8
			L1371.6,258.5z"/>
		<path d="M1354,285.3c-0.4-1.2-0.6-2.5-0.6-3.9l0-1.3h-42.8l-0.1,1.1c-1,7.8-0.2,14.8,2.3,20.3l0.5,1.1l41.1-16.3L1354,285.3z"/>
		<path d="M1451.2,140.6c-129.3,0-234.2,104.8-234.2,234.2c0,5,0.2,9.9,0.5,14.7c58.9,47,141.8,76.2,233.7,76.2
			c91.9,0,174.8-29.3,233.7-76.2c0.3-4.9,0.5-9.8,0.5-14.7C1685.4,245.4,1580.5,140.6,1451.2,140.6z M1408.2,245.2
			c-2,14.5-9.2,29.8-20.3,43.3c-15.8,19.3-36.9,31.3-54.9,31.3c-7.8,0-14.7-2.3-20-6.7c-18-14.8-13.7-49.9,9.6-78.2
			c15.8-19.3,36.9-31.3,54.9-31.3c7.8,0,14.7,2.3,20,6.7C1406.5,217.6,1410.3,230,1408.2,245.2z"/>
		<path d="M1358.6,290.5l-0.5-0.2l-42.1,16.6l1.4,1.4c0.6,0.6,1.2,1.1,1.7,1.6c4.3,3.5,9.7,5.3,16.1,5.3c8,0,17-2.8,26.1-8.2
			l0.5-0.3l2.4-15.2l-1.5,0C1361.2,291.4,1359.8,291.1,1358.6,290.5z"/>
		<path d="M1218.2,397.7c11.5,118.6,111.5,211.2,233.1,211.2c121.6,0,221.5-92.7,233.1-211.2c-58.9,46.7-141.5,75.7-233.1,75.7
			C1359.7,473.4,1277,444.3,1218.2,397.7z"/>
		<path d="M1354.7,274.3c0.6-1.5,1.3-2.9,2.1-4.2l0.7-1.1l-33-21.8l-0.7,1.1c-5.5,8.1-9.5,16.9-11.8,25.3l-0.4,1.6h42.9
			L1354.7,274.3z"/>
		<path d="M1378.1,283.3c-2.4,2.8-5.2,5-8.1,6.4l-0.6,0.3l-2.1,13.1l2.6-2c5.1-3.9,9.9-8.5,14.2-13.6l1-1.2l-6.3-3.9L1378.1,283.3z"
			/>
		<path d="M1384.2,270.7c-0.3,2.1-1,4.3-2.1,6.6l-0.5,1.1l6.6,4.1l0.7-1c4.9-6.7,8.7-13.7,11.4-20.8l1.6-4.3l-17.7,13.4
			L1384.2,270.7z"/>
		<path d="M1346.1,224.6c-6.1,4.5-11.7,9.9-16.6,15.9c-0.3,0.4-0.6,0.8-1,1.2l-1.2,1.5l33.3,22l0.8-0.7c1.2-1.2,2.5-2.2,3.8-3.1
			l1-0.6l-18.8-37.1L1346.1,224.6z"/>
		<path d="M1395.7,216.7c-2.8-2.3-6.1-3.9-10-4.7l-1.5-0.3l-2.4,49.4l0.3,0.4c0.3,0.4,0.6,0.8,0.8,1.2l0.7,1.3l20-15.2l0.1-0.5
			c0.1-0.8,0.3-1.6,0.4-2.4C1405.9,233.1,1402.9,222.7,1395.7,216.7z"/>
	</g>
	<text transform="matrix(1 0 0 1 1325.7701 82.2656)" class="st1 st2">100%</text>
</g>
</svg>
